<?xml version="1.0" encoding="UTF-8" standalone="no"?>
<svg
   version="1.1"
   width="216pt"
   height="216pt"
   viewBox="0 0 216 216"
   overflow="visible"
   id="svg3"
   sodipodi:docname="DrafthorseLogo.svg"
   inkscape:export-filename="DrafthorseLogo.png"
   inkscape:export-xdpi="8"
   inkscape:export-ydpi="8"
   inkscape:version="1.3 (0e150ed6c4, 2023-07-21)"
   xmlns:inkscape="http://www.inkscape.org/namespaces/inkscape"
   xmlns:sodipodi="http://sodipodi.sourceforge.net/DTD/sodipodi-0.dtd"
   xmlns="http://www.w3.org/2000/svg"
   xmlns:svg="http://www.w3.org/2000/svg">
  <defs
     id="defs3" />
  <sodipodi:namedview
     id="namedview3"
     pagecolor="#ffffff"
     bordercolor="#000000"
     borderopacity="0.25"
     inkscape:showpageshadow="2"
     inkscape:pageopacity="0.0"
     inkscape:pagecheckerboard="0"
     inkscape:deskcolor="#d1d1d1"
     inkscape:document-units="pt"
     inkscape:zoom="2.6979167"
     inkscape:cx="83.953668"
     inkscape:cy="124.72587"
     inkscape:window-width="1920"
     inkscape:window-height="991"
     inkscape:window-x="-9"
     inkscape:window-y="244"
     inkscape:window-maximized="1"
     inkscape:current-layer="svg3" />
  <path
     d="M 50.25071,48.48519 48.43442,39.91633 46.09787,29.86322 c -0.42843,-1.53015 -0.65793,-2.76957 -0.50493,-2.90729 0.39786,-0.45908 5.94924,4.02431 9.0432,7.19172 2.72827,2.80018 5.83907,8.24753 6.41593,11.26193 l 0.29072,1.53016 -4.37624,1.07111 -5.42286,1.37714 -1.0405,0.30567 z"
     stroke="#000000"
     stroke-width="0"
     fill="#000000"
     fill-opacity="1"
     id="path1" />
  <path
     d="m 50.68144,144.4993 -1.30063,-1.0711 v -3.7336 l 0.9946,-0.9181 c 0.72283,-0.5444 1.64831,-0.8773 2.55229,-0.9181 h 1.55616 l 1.16292,1.3772 c 1.48425,1.7291 1.46895,3.4887 -0.05509,5.0189 -1.48425,1.5302 -3.17353,1.5454 -4.9026,0.1528 z"
     stroke="#000000"
     stroke-width="0"
     fill="#000000"
     fill-opacity="1"
     id="path2" />
  <path
     d="M 200.62296,143.12341 99.2748,183.48188 99.29346,169.6721 93.48043,168.0808 c -10.12501,-2.77 -23.02528,-8.3397 -31.10969,-13.4504 l -3.10162,-1.9586 -1.13231,0.6121 -2.61962,0.9181 -1.48425,0.3057 -0.70387,6.2737 -1.08641,0.765 c -2.57066,1.8973 -6.13898,3.5193 -7.70738,3.5193 -1.80559,0 -10.02557,-3.3358 -10.35761,-4.1926 l -0.19893,-0.4594 -10.61926,0.3057 -3.31738,-5.8605 -5.10916,-9.5012 -1.790287,-3.6418 0.321367,-1.2241 c 0.183649,-0.765 2.08101,-4.9271 4.22781,-9.3798 l 3.90342,-8.0792 20.82539,10.6498 1.34653,-1.224 c 0.90066,-0.8337 1.92445,-1.5505 3.01593,-2.1116 0.91809,-0.4594 1.46895,-1.0711 1.23943,-1.2241 -0.2295,-0.3057 -5.54834,-3.0297 -11.80513,-6.2277 l -11.57255,-5.9676 c -0.2295,-0.1529 4.84446,-11.6751 10.16021,-23.05484 l 3.63871,-8.00268 c 0,-0.30567 -8.63159,2.09631 -11.5955,3.21333 l -2.63798,0.765 c -0.32137,-0.30567 3.34032,-9.22682 5.15355,-12.51665 2.06571,-3.74883 7.67984,-10.64987 10.62844,-13.06751 3.97687,-3.25926 9.8343,-6.77859 13.7928,-8.30873 l 4.24465,-1.53017 c 0.18365,0 -2.25392,2.46354 -5.40298,5.46265 -4.88425,4.66699 -12.69721,13.58776 -12.69721,14.49056 0,0.61216 4.48029,-1.68317 10.90388,-5.52387 7.10294,-4.25394 14.0177,-9.45646 15.69306,-11.81289 l 1.02521,-1.37716 -2.6793,-4.19263 C 61.46015,46.14711 60.98886,44.58636 59.73566,34.66943 L 58.41973,24.89175 58.12901,23.2851 h 0.56615 c 0.9793,0 8.23988,7.54365 10.14951,10.54275 1.20086,1.96477 2.23618,4.04057 3.08321,6.18182 l 1.25473,3.30513 -0.45933,9.39515 -1.25473,3.10618 c -2.18049,5.37086 -4.41755,8.55355 -9.88785,14.0621 -2.91953,2.9379 -5.19487,5.34021 -5.06022,5.34021 0.68859,0 8.79686,-4.34562 11.68885,-6.25829 7.76247,-5.126 12.72934,-13.71017 12.7676,-22.06787 l 0.0093,-1.85148 5.56514,0.0046 c 18.1804,0.01375 39.3541,5.99819 55.7291,15.76208 18.9039,11.26193 36.6203,30.40721 46.7641,50.52263 3.7443,7.4241 7.8891,18.4396 10.2723,27.1144 z M 57.38428,93.15953 c 1.05581,-0.45933 5.34942,-5.86051 5.34942,-6.79388 0,-0.45932 -6.14816,-0.13322 -7.65536,0.45933 l -1.68623,0.765 -0.47437,1.89739 -0.78036,3.70298 -0.306,1.80555 2.1162,-0.6121 z m 10.29946,22.08467 12.18155,-23.77395 4.51546,-8.82899 -1.30066,-0.765 -2.6395,-1.69845 -1.73212,-0.91808 c -0.21414,0.0015 -1.2088,1.53016 -2.19268,3.33576 -6.06859,11.24663 -23.18121,44.68051 -23.18121,45.29861 0,0.1349 0.84159,0.4594 1.85455,0.6122 1.0252,0.1528 2.41152,0.6122 3.09244,1.0711 l 1.48425,0.765 c 0.13682,0.009 3.69838,-6.7021 7.91792,-15.0982 z M 56.1701,148.0186 c 5.62484,-2.5553 5.4244,-9.8389 -0.35193,-12.7615 l -2.20801,-1.071 -1.7459,0.3056 c -2.54618,0.4594 -4.45887,2.0199 -5.56364,4.514 l -0.97929,2.2035 0.306,1.6679 c 0.58143,3.1215 4.08092,6.09 7.19937,6.1206 0.6733,0.003 2.17893,-0.4594 3.3434,-0.9791 z m -26.13226,-1.3772 1.61278,-2.0963 -1.0252,-1.6066 -2.20801,-3.0297 -1.17821,-1.3772 -2.9991,2.1422 1.6847,3.5193 c 0.93339,1.928 1.6847,3.9632 1.6847,4.4987 0,1.07 0.05345,1.071 2.42834,-2.0504 z m 69.11443,5.3248 C 98.65802,141.9286 96.6474,126.4388 95.41409,123.0878 l -0.33673,-0.9181 -0.90279,1.3772 c -1.79947,2.8461 -5.65545,5.3708 -9.8037,6.4266 l -3.07251,0.765 -6.64235,-0.6113 -3.15824,4.009 c -4.50018,5.7228 -5.79774,7.7731 -5.79774,9.2115 v 1.2241 l 5.19792,2.8919 c 3.12438,1.7211 6.32217,3.3152 9.57722,4.7741 5.19947,2.2493 16.38963,6.0747 18.56643,6.3502 0.25486,0.03 0.30381,-2.7208 0.11067,-6.6218 z m 71.25081,3.21903 c 7.4779,-15.8707 6.8673,-37.1001 -1.5822,-55.0136 -6.7082,-14.230383 -20.90568,-23.69536 -34.66148,-32.22749 -4.846,-2.9991 -12.74,-7.0081 -17.812,-9.01261 -7.7977,-3.1062 -19.92463,-5.90638 -25.52882,-5.90638 l -2.34109,-0.0031 -0.21415,1.07109 C 87.2686,59.1732 86.2526,62.40186 84.56944,65.7682 l -1.96628,3.94776 3.2072,2.08104 c 1.76424,1.07108 3.27757,1.98916 3.36331,1.89738 l 3.67241,-8.53826 0.3825,-0.91808 1.76424,4.16197 c 3.40916,8.03333 6.42813,19.03051 7.11982,25.91925 l 0.35226,3.4581 0.4438,-1.2241 c 0.24519,-0.6122 0.7037,-3.36636 1.00987,-6.04411 l 0.56639,-4.85053 -0.61216,-5.32493 c -0.73476,-6.42665 -1.7188,-10.45093 -3.33626,-13.67955 l -1.2088,-2.41768 2.11773,1.88209 c 7.31413,6.51845 13.80203,19.9685 17.28953,35.85455 l 1.1476,5.1872 -0.0225,24.2376 -1.0864,4.667 c -0.5966,2.5707 -1.0099,4.7435 -0.8875,4.8659 0.367,0.3057 3.9661,-6.5185 5.8498,-11.1854 2.1212,-5.2185 3.599,-10.7446 4.3656,-16.3252 0.7494,-5.2025 0.3522,-17.3137 -0.7193,-22.21174 -0.8568,-3.88655 -3.8835,-12.45533 -5.1168,-14.45983 l -0.765,-1.22417 1.8407,1.7291 c 2.4529,2.31053 7.7518,10.29794 9.8588,14.87309 3.9907,8.66065 7.5651,21.00905 8.9698,30.99015 l 0.8568,6.0441 -0.4903,19.586 -1.0711,5.6309 c -0.5811,3.0909 -1.4843,6.8245 -2.0015,8.2934 l -0.765,2.6625 c 0.4741,0 5.2867,-8.2781 7.0448,-12.1188 8.4242,-18.4168 8.8588,-41.7762 1.1024,-59.49227 l -1.4536,-3.33576 1.7826,1.97388 c 10.7279,11.90455 19.0877,36.92875 19.0905,57.13745 5e-4,3.6723 -0.19259,6.07332 -0.30468,7.43286 0.67618,-0.22816 3.52362,-1.47109 4.44236,-1.74583 z"
     stroke="#000000"
     stroke-width="0"
     fill="#000000"
     fill-opacity="1"
     id="path3"
     sodipodi:nodetypes="cccccccccccsccccccccccccccccccccccccscccccccsccccccscccccccccsccccccccccccccsccccccccccccccccccccscccccccccsccccccccccccccccccccccccccccccccccccccccccccccccccscc" />
</svg>
